<svg width="143" height="128" viewBox="0 0 143 128" fill="none" xmlns="http://www.w3.org/2000/svg">
<g clip-path="url(#clip0_434_5988)">
<path fill-rule="evenodd" clip-rule="evenodd" d="M128 0H14.2222C6.4 0 0 6.4 0 14.2222V113.778C0 121.6 6.4 128 14.2222 128H128C135.822 128 142.222 121.6 142.222 113.778V14.2222C142.222 6.4 135.822 0 128 0ZM128 113.778H14.2222V14.2222H128V113.778Z" fill="#20262E"/>
<path fill-rule="evenodd" clip-rule="evenodd" d="M122.311 55.6848L113.59 46.9333L94.12 66.4699L85.46 57.7185L76.8 66.4083L94.12 83.9111L122.311 55.6848Z" fill="#20262E"/>
<path d="M27.2505 90.3334V38.6162H47.9576C51.7623 38.6162 54.9357 39.1802 57.4778 40.3081C60.0199 41.4361 61.9306 43.0017 63.2101 45.0051C64.4896 46.9916 65.1293 49.2812 65.1293 51.8738C65.1293 53.894 64.7253 55.6701 63.9172 57.2021C63.1091 58.7172 61.998 59.963 60.5838 60.9394C59.1865 61.899 57.5872 62.5808 55.7859 62.9849V63.4899C57.7556 63.5741 59.599 64.1297 61.3162 65.1566C63.0502 66.1835 64.4559 67.6229 65.5333 69.4748C66.6108 71.3098 67.1495 73.4984 67.1495 76.0404C67.1495 78.7846 66.4677 81.234 65.104 83.3889C63.7572 85.527 61.7623 87.2189 59.1192 88.4647C56.4761 89.7105 53.2185 90.3334 49.3465 90.3334H27.2505ZM38.1848 81.394H47.099C50.1461 81.394 52.3684 80.8132 53.7657 79.6516C55.163 78.4731 55.8616 76.9074 55.8616 74.9546C55.8616 73.5236 55.5165 72.261 54.8263 71.1667C54.136 70.0724 53.1512 69.2138 51.8717 68.5909C50.6091 67.9681 49.1024 67.6566 47.3515 67.6566H38.1848V81.394ZM38.1848 60.2576H46.2909C47.7892 60.2576 49.1192 59.9967 50.2808 59.4748C51.4593 58.9361 52.3852 58.1785 53.0586 57.2021C53.7488 56.2256 54.0939 55.0556 54.0939 53.692C54.0939 51.8233 53.429 50.3165 52.099 49.1718C50.7859 48.027 48.9172 47.4546 46.4929 47.4546H38.1848V60.2576Z" fill="#20262E"/>
</g>
<defs>
<clipPath id="clip0_434_5988">
<rect width="142.222" height="128" fill="white"/>
</clipPath>
</defs>
</svg>