<svg xmlns="http://www.w3.org/2000/svg">
  <defs>

    <symbol id="dashboard" viewBox="0 0 24 24">
      <g clip-path="url(#clip0_230_532)">
        <path
          d="M19 5V7H15V5H19ZM9 5V11H5V5H9ZM19 13V19H15V13H19ZM9 17V19H5V17H9ZM21 3H13V9H21V3ZM11 3H3V13H11V3ZM21 11H13V21H21V11ZM11 15H3V21H11V15Z" />
      </g>
      <defs>
        <clipPath id="clip0_230_532" />
      </defs>
    </symbol>

    <symbol id="projects" viewBox="0 0 24 24">
      <path
        d="M3 21C2.45 21 1.97933 20.8043 1.588 20.413C1.196 20.021 1 19.55 1 19V6H3V19H20V21H3ZM7 17C6.45 17 5.97933 16.8043 5.588 16.413C5.196 16.021 5 15.55 5 15V4C5 3.45 5.196 2.979 5.588 2.587C5.97933 2.19567 6.45 2 7 2H12L14 4H21C21.55 4 22.021 4.196 22.413 4.588C22.8043 4.97933 23 5.45 23 6V15C23 15.55 22.8043 16.021 22.413 16.413C22.021 16.8043 21.55 17 21 17H7ZM7 15H21V6H13.175L11.175 4H7V15Z" />
    </symbol>

    <symbol id="reports" viewBox="0 0 24 24">
      <path
        d="M19 3H5C3.9 3 3 3.9 3 5V19C3 20.1 3.9 21 5 21H19C20.1 21 21 20.1 21 19V5C21 3.9 20.1 3 19 3ZM19 19H5V5H19V19ZM9 12H7V17H9V12ZM17 7H15V17H17V7ZM13 14H11V17H13V14ZM13 10H11V12H13V10Z" />
    </symbol>

    <symbol id="users" viewBox="0 0 24 24">
      <path
        d="M12 2C6.48 2 2 6.48 2 12C2 17.52 6.48 22 12 22C17.52 22 22 17.52 22 12C22 6.48 17.52 2 12 2ZM7.35 18.5C8.66 17.56 10.26 17 12 17C13.74 17 15.34 17.56 16.65 18.5C15.34 19.44 13.74 20 12 20C10.26 20 8.66 19.44 7.35 18.5ZM18.14 17.12C16.45 15.8 14.32 15 12 15C9.68 15 7.55 15.8 5.86 17.12C4.7 15.73 4 13.95 4 12C4 7.58 7.58 4 12 4C16.42 4 20 7.58 20 12C20 13.95 19.3 15.73 18.14 17.12ZM12 6C10.07 6 8.5 7.57 8.5 9.5C8.5 11.43 10.07 13 12 13C13.93 13 15.5 11.43 15.5 9.5C15.5 7.57 13.93 6 12 6ZM12 11C11.17 11 10.5 10.33 10.5 9.5C10.5 8.67 11.17 8 12 8C12.83 8 13.5 8.67 13.5 9.5C13.5 10.33 12.83 11 12 11Z" />
    </symbol>

    <!-- <symbol id="menu-outline" class="ionicon" viewBox="0 0 512 512">
      <path fill="none" stroke="" stroke-linecap="round" stroke-miterlimit="10" stroke-width="32" d="M80
    160h352M80 256h352M80 352h352"/>
    </symbol> -->

    <symbol id="menu-outline" class="ionicon" viewBox="0 0 512 512">
      <path fill="none" stroke="black" stroke-linecap="round" stroke-miterlimit="10"
        stroke-width="32" d="M80 160h352M80 256h352M80 352h352" />
    </symbol>

    <symbol id="search-icon" viewBox="0 0 24 24">
      <path
        d="M15.5 14H14.71L14.43 13.73C15.41 12.59 16 11.11 16 9.5C16 5.91 13.09 3 9.5 3C5.91 3 3 5.91 3 9.5C3 13.09 5.91 16 9.5 16C11.11 16 12.59 15.41 13.73 14.43L14 14.71V15.5L19 20.49L20.49 19L15.5 14ZM9.5 14C7.01 14 5 11.99 5 9.5C5 7.01 7.01 5 9.5 5C11.99 5 14 7.01 14 9.5C14 11.99 11.99 14 9.5 14Z"
        fill="#2C2C2C" />
    </symbol>

    <symbol id="long-arrow-back" class="ionicon" viewBox="0 0 24 24">
      <g clip-path="url(#clip0_14_131)">
        <path d="M21 11H6.83L10.41 7.41L9 6L3 12L9 18L10.41 16.59L6.83 13H21V11Z" />
      </g>
      <defs>
        <clipPath id="clip0_14_131">
          <rect width="24" height="24" />
        </clipPath>
      </defs>
    </symbol>

    <symbol id="project-outline" viewBox="0 0 24 24">
      <path
        d="M4 20C3.45 20 2.97933 19.8043 2.588 19.413C2.196 19.021 2 18.55 2 18V6C2 5.45 2.196 4.97933 2.588 4.588C2.97933 4.196 3.45 4 4 4H10L12 6H20C20.55 6 21.021 6.196 21.413 6.588C21.8043 6.97933 22 7.45 22 8V18C22 18.55 21.8043 19.021 21.413 19.413C21.021 19.8043 20.55 20 20 20H4ZM4 6V18H20V8H11.175L9.175 6H4Z"
        fill="#2C2C2C" />
    </symbol>


  </defs>
</svg>