<svg xmlns="http://www.w3.org/2000/svg">
  <defs>

    <symbol id="dashboard" viewBox="0 0 24 24">
      <g clip-path="url(#clip0_230_532)">
        <path
          d="M19 5V7H15V5H19ZM9 5V11H5V5H9ZM19 13V19H15V13H19ZM9 17V19H5V17H9ZM21 3H13V9H21V3ZM11 3H3V13H11V3ZM21 11H13V21H21V11ZM11 15H3V21H11V15Z" />
      </g>
      <defs>
        <clipPath id="clip0_230_532" />
      </defs>
    </symbol>

    <symbol id="projects" viewBox="0 0 24 24">
      <path
        d="M3 21C2.45 21 1.97933 20.8043 1.588 20.413C1.196 20.021 1 19.55 1 19V6H3V19H20V21H3ZM7 17C6.45 17 5.97933 16.8043 5.588 16.413C5.196 16.021 5 15.55 5 15V4C5 3.45 5.196 2.979 5.588 2.587C5.97933 2.19567 6.45 2 7 2H12L14 4H21C21.55 4 22.021 4.196 22.413 4.588C22.8043 4.97933 23 5.45 23 6V15C23 15.55 22.8043 16.021 22.413 16.413C22.021 16.8043 21.55 17 21 17H7ZM7 15H21V6H13.175L11.175 4H7V15Z" />
    </symbol>

    <symbol id="reports" viewBox="0 0 24 24">
      <path
        d="M19 3H5C3.9 3 3 3.9 3 5V19C3 20.1 3.9 21 5 21H19C20.1 21 21 20.1 21 19V5C21 3.9 20.1 3 19 3ZM19 19H5V5H19V19ZM9 12H7V17H9V12ZM17 7H15V17H17V7ZM13 14H11V17H13V14ZM13 10H11V12H13V10Z" />
    </symbol>

    <symbol id="users" viewBox="0 0 24 24">
      <path
        d="M12 2C6.48 2 2 6.48 2 12C2 17.52 6.48 22 12 22C17.52 22 22 17.52 22 12C22 6.48 17.52 2 12 2ZM7.35 18.5C8.66 17.56 10.26 17 12 17C13.74 17 15.34 17.56 16.65 18.5C15.34 19.44 13.74 20 12 20C10.26 20 8.66 19.44 7.35 18.5ZM18.14 17.12C16.45 15.8 14.32 15 12 15C9.68 15 7.55 15.8 5.86 17.12C4.7 15.73 4 13.95 4 12C4 7.58 7.58 4 12 4C16.42 4 20 7.58 20 12C20 13.95 19.3 15.73 18.14 17.12ZM12 6C10.07 6 8.5 7.57 8.5 9.5C8.5 11.43 10.07 13 12 13C13.93 13 15.5 11.43 15.5 9.5C15.5 7.57 13.93 6 12 6ZM12 11C11.17 11 10.5 10.33 10.5 9.5C10.5 8.67 11.17 8 12 8C12.83 8 13.5 8.67 13.5 9.5C13.5 10.33 12.83 11 12 11Z" />
    </symbol>

    <!-- <symbol id="menu-outline" class="ionicon" viewBox="0 0 512 512">
      <path fill="none" stroke="" stroke-linecap="round" stroke-miterlimit="10" stroke-width="32" d="M80
    160h352M80 256h352M80 352h352"/>
    </symbol> -->

    <symbol id="menu-outline" class="ionicon" viewBox="0 0 512 512">
      <path fill="none" stroke="black" stroke-linecap="round" stroke-miterlimit="10"
        stroke-width="32" d="M80 160h352M80 256h352M80 352h352" />
    </symbol>

    <symbol id="search-icon" viewBox="0 0 24 24">
      <path
        d="M15.5 14H14.71L14.43 13.73C15.41 12.59 16 11.11 16 9.5C16 5.91 13.09 3 9.5 3C5.91 3 3 5.91 3 9.5C3 13.09 5.91 16 9.5 16C11.11 16 12.59 15.41 13.73 14.43L14 14.71V15.5L19 20.49L20.49 19L15.5 14ZM9.5 14C7.01 14 5 11.99 5 9.5C5 7.01 7.01 5 9.5 5C11.99 5 14 7.01 14 9.5C14 11.99 11.99 14 9.5 14Z"
        fill="#2C2C2C" />
    </symbol>

    <symbol id="long-arrow-back" class="ionicon" viewBox="0 0 24 24">
      <g clip-path="url(#clip0_14_131)">
        <path d="M21 11H6.83L10.41 7.41L9 6L3 12L9 18L10.41 16.59L6.83 13H21V11Z" />
      </g>
      <defs>
        <clipPath id="clip0_14_131">
          <rect width="24" height="24" />
        </clipPath>
      </defs>
    </symbol>

    <symbol id="project-outline" viewBox="0 0 24 24">
      <path
        d="M4 20C3.45 20 2.97933 19.8043 2.588 19.413C2.196 19.021 2 18.55 2 18V6C2 5.45 2.196 4.97933 2.588 4.588C2.97933 4.196 3.45 4 4 4H10L12 6H20C20.55 6 21.021 6.196 21.413 6.588C21.8043 6.97933 22 7.45 22 8V18C22 18.55 21.8043 19.021 21.413 19.413C21.021 19.8043 20.55 20 20 20H4ZM4 6V18H20V8H11.175L9.175 6H4Z"
        fill="#2C2C2C" />
    </symbol>

    <symbol id="add-outline" viewBox="0 0 24 24">
      <g clip-path="url(#clip0_276_6396)">
        <path
          d="M13 7H11V11H7V13H11V17H13V13H17V11H13V7ZM12 2C6.48 2 2 6.48 2 12C2 17.52 6.48 22 12 22C17.52 22 22 17.52 22 12C22 6.48 17.52 2 12 2ZM12 20C7.59 20 4 16.41 4 12C4 7.59 7.59 4 12 4C16.41 4 20 7.59 20 12C20 16.41 16.41 20 12 20Z"
          fill="#2C2C2C" />
      </g>
      <defs>
        <clipPath id="clip0_276_6396">
          <rect fill="white" />
        </clipPath>
      </defs>
    </symbol>

    <svg id="hi-emoji" fill="none">
      <path id="path1"
        d="M46.7002 13.6735C45.2886 12.6868 43.1606 12.8761 41.8931 13.9228L43.3468 11.8098C44.5167 10.1414 44.0977 8.33627 42.4277 7.1649C40.7578 5.99804 36.0258 9.1352 36.0258 9.1352C37.2061 7.45024 36.9854 5.31474 35.3004 4.13287C33.6155 2.95549 31.2907 3.36247 30.1104 5.05044L14.4621 27.1562L16.4564 46.4913L33.1004 40.4212L47.6178 18.8966C48.8087 17.2011 48.3972 14.8629 46.7002 13.6735Z"
        fill="#D2A077" />
      <path id="path2"
        d="M49.953 25.9712C49.953 25.9712 51.653 23.4933 49.1736 21.7949C46.6972 20.0964 44.9987 22.5728 44.9987 22.5728L37.113 34.0732C36.8412 33.6196 36.5438 33.1721 36.212 32.7306L47.1567 16.7715C47.1567 16.7715 48.8552 14.2951 46.3773 12.5966C43.9009 10.8981 42.2024 13.3745 42.2024 13.3745L31.9079 28.3875C31.525 28.0752 31.133 27.7613 30.7291 27.4535L42.6635 10.0466C42.6635 10.0466 44.362 7.57026 41.8841 5.87178C39.4077 4.1733 37.7092 6.64968 37.7092 6.64968L25.7748 24.0535C25.3363 23.7847 24.9023 23.5519 24.4667 23.3056L35.6218 7.03864C35.6218 7.03864 37.3202 4.56225 34.8439 2.86377C32.3675 1.16529 30.669 3.64168 30.669 3.64168L18.8742 20.8427L17.0811 23.4588C24.5118 28.5557 25.2191 38.1444 20.9737 44.3361C20.1252 45.5751 18.8862 44.7266 18.8862 44.7266C23.9817 37.2944 22.4259 28.9432 14.9937 23.8477L17.1848 12.882C17.1848 12.882 18.0032 9.99258 15.1153 9.17263C12.226 8.35417 11.406 11.2435 11.406 11.2435L8.87556 18.7583C7.87239 21.7378 6.80465 24.7067 5.3915 27.515C1.40134 35.4443 3.78463 45.2988 11.3084 50.4603C19.5155 56.0874 30.7351 53.9954 36.3636 45.7898L49.953 25.9712Z"
        fill="#F3D2A2" />
      <path id="path3"
        d="M35.979 48.0561C41.986 48.0561 48.0561 41.9861 48.0561 35.979C48.0561 35.1486 48.6643 34.4773 49.4947 34.4773C50.3252 34.4773 51.0596 35.1486 51.0596 35.979C51.0596 44.9896 44.9895 51.0596 35.979 51.0596C35.1485 51.0596 34.4772 50.3253 34.4772 49.4948C34.4772 48.6643 35.1485 48.0561 35.979 48.0561Z"
        fill="#5DADEC" />
      <path id="path4"
        d="M43.4877 50.9965C47.993 50.9965 50.9965 47.993 50.9965 43.4877C50.9965 42.6573 51.6678 41.986 52.4982 41.986C53.3287 41.986 54 42.6573 54 43.4877C54 49.4947 49.4947 54 43.4877 54C42.6573 54 41.986 53.3287 41.986 52.4982C41.986 51.6678 42.6573 50.9965 43.4877 50.9965ZM17.958 2.94043C18.7869 2.94043 19.4597 3.61321 19.4597 4.44218C19.4597 5.27115 18.7869 5.94393 17.958 5.94393C11.9509 5.94393 5.94394 11.3337 5.94394 17.9579C5.94394 18.7869 5.27115 19.4597 4.44219 19.4597C3.61322 19.4597 2.94044 18.7869 2.94044 17.9579C2.94044 9.67729 8.94744 2.94043 17.958 2.94043Z"
        fill="#5DADEC" />
      <path id="path5"
        d="M10.4494 0C11.2784 0 11.9512 0.609711 11.9512 1.43868C11.9512 2.26765 11.2784 3.0035 10.4494 3.0035C5.94416 3.0035 3.00373 6.3449 3.00373 10.4492C3.00373 11.2782 2.26938 11.9509 1.43891 11.9509C0.60844 11.9509 0.000230789 11.2782 0.000230789 10.4492C0.000230789 4.68697 4.44241 0 10.4494 0Z"
        fill="#5DADEC" />
    </svg>


    <clipPath id="clipPathRect">
      <rect width="56" height="56" fill="white" transform="translate(0 0.5)" />
    </clipPath>
    <symbol id="close">
      <path
        d="M44.3327 15.457L41.0427 12.167L27.9993 25.2103L14.956 12.167L11.666 15.457L24.7093 28.5003L11.666 41.5437L14.956 44.8337L27.9993 31.7903L41.0427 44.8337L44.3327 41.5437L31.2893 28.5003L44.3327 15.457Z"
        fill="black" />
    </symbol>

    <symbol id="tag-outline" viewBox="0 0 24 25">
      <path
        d="M12.85 22.75C12.5667 22.75 12.3 22.6957 12.05 22.587C11.8 22.479 11.5833 22.3333 11.4 22.15L2.6 13.35C2.41667 13.1667 2.271 12.95 2.163 12.7C2.05433 12.45 2 12.1833 2 11.9V4.75C2 4.2 2.196 3.729 2.588 3.337C2.97933 2.94567 3.45 2.75 4 2.75H11.15C11.4333 2.75 11.7 2.804 11.95 2.912C12.2 3.02067 12.4167 3.16667 12.6 3.35L21.4 12.175C21.7833 12.5583 21.975 13.029 21.975 13.587C21.975 14.1457 21.7833 14.6167 21.4 15L14.25 22.15C14.0667 22.3333 13.8543 22.479 13.613 22.587C13.371 22.6957 13.1167 22.75 12.85 22.75ZM12.825 20.75L19.975 13.6L11.15 4.75H4V11.9L12.825 20.75ZM6.5 8.75C6.91667 8.75 7.27067 8.604 7.562 8.312C7.854 8.02067 8 7.66667 8 7.25C8 6.83333 7.854 6.47933 7.562 6.188C7.27067 5.896 6.91667 5.75 6.5 5.75C6.08333 5.75 5.72933 5.896 5.438 6.188C5.146 6.47933 5 6.83333 5 7.25C5 7.66667 5.146 8.02067 5.438 8.312C5.72933 8.604 6.08333 8.75 6.5 8.75Z"
        fill="black" />
    </symbol>

    <symbol id="save-outline" viewBox="0 0 24 25">
      <g clip-path="url(#clip0_348_3155)">
        <path
          d="M12 2.75C6.48 2.75 2 7.23 2 12.75C2 18.27 6.48 22.75 12 22.75C17.52 22.75 22 18.27 22 12.75C22 7.23 17.52 2.75 12 2.75ZM12 20.75C7.59 20.75 4 17.16 4 12.75C4 8.34 7.59 4.75 12 4.75C16.41 4.75 20 8.34 20 12.75C20 17.16 16.41 20.75 12 20.75ZM16.59 8.33L10 14.92L7.41 12.34L6 13.75L10 17.75L18 9.75L16.59 8.33Z"
          fill="black"/>
      </g>
      <defs>
        <clipPath id="clip0_348_3155">
        </clipPath>
      </defs>
    </symbol>

    <symbol id="notes-outline" viewBox="0 0 56 57">
      <g clip-path="url(#clip0_125_14216)">
          <path d="M44.3333 11.9167V32.9167H32.6667V44.5833H11.6667V11.9167H44.3333ZM44.3333 7.25H11.6667C9.1 7.25 7 9.35 7 11.9167V44.5833C7 47.15 9.1 49.25 11.6667 49.25H35L49 35.25V11.9167C49 9.35 46.9 7.25 44.3333 7.25ZM28 32.9167H16.3333V28.25H28V32.9167ZM39.6667 23.5833H16.3333V18.9167H39.6667V23.5833Z" fill="black"/>
      </g>
      <defs>
          <clipPath id="clip0_125_14216">
          </clipPath>
      </defs>
  </symbol>
  
  <symbol id="add-notes" viewBox="0 0 32 32">
    <g clip-path="url(#clip0_26_1976)">
        <path d="M18.6667 13.3333H4V16H18.6667V13.3333ZM18.6667 8H4V10.6667H18.6667V8ZM24 18.6667V13.3333H21.3333V18.6667H16V21.3333H21.3333V26.6667H24V21.3333H29.3333V18.6667H24ZM4 21.3333H13.3333V18.6667H4V21.3333Z" />
    </g>
    <defs>
        <clipPath id="clip0_26_1976">
        </clipPath>
    </defs>
</symbol>



  </defs>
</svg>