<svg xmlns="http://www.w3.org/2000/svg">
  <defs>
    <symbol id="dashboard" viewBox="0 0 24 24">
      <path
        d="M19 5V7H15V5H19ZM9 5V11H5V5H9ZM19 13V19H15V13H19ZM9 17V19H5V17H9ZM21 3H13V9H21V3ZM11 3H3V13H11V3ZM21 11H13V21H21V11ZM11 15H3V21H11V15Z" />
    </symbol>

    <symbol id="projects" viewBox="0 0 24 24">
      <path
        d="M3 21C2.45 21 1.97933 20.8043 1.588 20.413C1.196 20.021 1 19.55 1 19V6H3V19H20V21H3ZM7 17C6.45 17 5.97933 16.8043 5.588 16.413C5.196 16.021 5 15.55 5 15V4C5 3.45 5.196 2.979 5.588 2.587C5.97933 2.19567 6.45 2 7 2H12L14 4H21C21.55 4 22.021 4.196 22.413 4.588C22.8043 4.97933 23 5.45 23 6V15C23 15.55 22.8043 16.021 22.413 16.413C22.021 16.8043 21.55 17 21 17H7ZM7 15H21V6H13.175L11.175 4H7V15Z" />
    </symbol>

    <symbol id="reports" viewBox="0 0 24 24">
      <path
        d="M19 3H5C3.9 3 3 3.9 3 5V19C3 20.1 3.9 21 5 21H19C20.1 21 21 20.1 21 19V5C21 3.9 20.1 3 19 3ZM19 19H5V5H19V19ZM9 12H7V17H9V12ZM17 7H15V17H17V7ZM13 14H11V17H13V14ZM13 10H11V12H13V10Z" />
    </symbol>

    <symbol id="users" viewBox="0 0 24 24">
      <path
        d="M12 2C6.48 2 2 6.48 2 12C2 17.52 6.48 22 12 22C17.52 22 22 17.52 22 12C22 6.48 17.52 2 12 2ZM7.35 18.5C8.66 17.56 10.26 17 12 17C13.74 17 15.34 17.56 16.65 18.5C15.34 19.44 13.74 20 12 20C10.26 20 8.66 19.44 7.35 18.5ZM18.14 17.12C16.45 15.8 14.32 15 12 15C9.68 15 7.55 15.8 5.86 17.12C4.7 15.73 4 13.95 4 12C4 7.58 7.58 4 12 4C16.42 4 20 7.58 20 12C20 13.95 19.3 15.73 18.14 17.12ZM12 6C10.07 6 8.5 7.57 8.5 9.5C8.5 11.43 10.07 13 12 13C13.93 13 15.5 11.43 15.5 9.5C15.5 7.57 13.93 6 12 6ZM12 11C11.17 11 10.5 10.33 10.5 9.5C10.5 8.67 11.17 8 12 8C12.83 8 13.5 8.67 13.5 9.5C13.5 10.33 12.83 11 12 11Z" />
    </symbol>

    <symbol id="menu-outline" class="ionicon" viewBox="0 0 512 512">
      <path fill="none" stroke="black" stroke-linecap="round" stroke-miterlimit="10"
        stroke-width="32" d="M80 160h352M80 256h352M80 352h352" />
    </symbol>

    <symbol id="search-icon" viewBox="0 0 24 24">
      <path
        d="M15.5 14H14.71L14.43 13.73C15.41 12.59 16 11.11 16 9.5C16 5.91 13.09 3 9.5 3C5.91 3 3 5.91 3 9.5C3 13.09 5.91 16 9.5 16C11.11 16 12.59 15.41 13.73 14.43L14 14.71V15.5L19 20.49L20.49 19L15.5 14ZM9.5 14C7.01 14 5 11.99 5 9.5C5 7.01 7.01 5 9.5 5C11.99 5 14 7.01 14 9.5C14 11.99 11.99 14 9.5 14Z" />
    </symbol>

    <!-- <symbol id="long-arrow-back" class="ionicon" viewBox="0 0 24 24">
      <g clip-path="url(#clip0_14_131)">
        <path d="M21 11H6.83L10.41 7.41L9 6L3 12L9 18L10.41 16.59L6.83 13H21V11Z" />
      </g>
      <defs>
        <clipPath id="clip0_14_131">
        </clipPath>
      </defs>
    </symbol> -->

    <symbol id="project-outline" viewBox="0 0 24 24">
      <path
        d="M4 20C3.45 20 2.97933 19.8043 2.588 19.413C2.196 19.021 2 18.55 2 18V6C2 5.45 2.196 4.97933 2.588 4.588C2.97933 4.196 3.45 4 4 4H10L12 6H20C20.55 6 21.021 6.196 21.413 6.588C21.8043 6.97933 22 7.45 22 8V18C22 18.55 21.8043 19.021 21.413 19.413C21.021 19.8043 20.55 20 20 20H4ZM4 6V18H20V8H11.175L9.175 6H4Z" />
    </symbol>

    <symbol id="add-outline" viewBox="0 0 24 24">
      <path
        d="M13 7H11V11H7V13H11V17H13V13H17V11H13V7ZM12 2C6.48 2 2 6.48 2 12C2 17.52 6.48 22 12 22C17.52 22 22 17.52 22 12C22 6.48 17.52 2 12 2ZM12 20C7.59 20 4 16.41 4 12C4 7.59 7.59 4 12 4C16.41 4 20 7.59 20 12C20 16.41 16.41 20 12 20Z" />
    </symbol>

    <symbol id="add-notes" viewBox="0 0 32 32">
      <path
        d="M18.6667 13.3333H4V16H18.6667V13.3333ZM18.6667 8H4V10.6667H18.6667V8ZM24 18.6667V13.3333H21.3333V18.6667H16V21.3333H21.3333V26.6667H24V21.3333H29.3333V18.6667H24ZM4 21.3333H13.3333V18.6667H4V21.3333Z" />
    </symbol>

    <symbol id="notes-outline" viewBox="0 0 56 57">
      <path
        d="M44.3333 11.9167V32.9167H32.6667V44.5833H11.6667V11.9167H44.3333ZM44.3333 7.25H11.6667C9.1 7.25 7 9.35 7 11.9167V44.5833C7 47.15 9.1 49.25 11.6667 49.25H35L49 35.25V11.9167C49 9.35 46.9 7.25 44.3333 7.25ZM28 32.9167H16.3333V28.25H28V32.9167ZM39.6667 23.5833H16.3333V18.9167H39.6667V23.5833Z" />
    </symbol>

    <symbol id="close" viewBox="0 0 56 57">
      <path
        d="M44.3334 15.2065L41.0434 11.9165L28.0001 24.9598L14.9567 11.9165L11.6667 15.2065L24.7101 28.2498L11.6667 41.2932L14.9567 44.5832L28.0001 31.5398L41.0434 44.5832L44.3334 41.2932L31.2901 28.2498L44.3334 15.2065Z" />
    </symbol>

    <symbol id="save-outline" viewBox="0 0 24 25">
      <path
        d="M12 2.75C6.48 2.75 2 7.23 2 12.75C2 18.27 6.48 22.75 12 22.75C17.52 22.75 22 18.27 22 12.75C22 7.23 17.52 2.75 12 2.75ZM12 20.75C7.59 20.75 4 17.16 4 12.75C4 8.34 7.59 4.75 12 4.75C16.41 4.75 20 8.34 20 12.75C20 17.16 16.41 20.75 12 20.75ZM16.59 8.33L10 14.92L7.41 12.34L6 13.75L10 17.75L18 9.75L16.59 8.33Z"
      />
    </symbol>

    <symbol id="hi-emoji" viewBox="0 0 54 54">
      <path
        d="M46.7002 13.6735C45.2886 12.6868 43.1606 12.8761 41.8931 13.9228L43.3468 11.8098C44.5167 10.1414 44.0977 8.33627 42.4277 7.1649C40.7578 5.99804 36.0258 9.1352 36.0258 9.1352C37.2061 7.45024 36.9854 5.31474 35.3004 4.13287C33.6155 2.95549 31.2907 3.36247 30.1104 5.05044L14.4621 27.1562L16.4564 46.4913L33.1004 40.4212L47.6178 18.8966C48.8087 17.2011 48.3972 14.8629 46.7002 13.6735Z"
        fill="#D2A077" />
      <path
        d="M49.953 25.9712C49.953 25.9712 51.653 23.4933 49.1736 21.7949C46.6972 20.0964 44.9987 22.5728 44.9987 22.5728L37.113 34.0732C36.8412 33.6196 36.5438 33.1721 36.212 32.7306L47.1567 16.7715C47.1567 16.7715 48.8552 14.2951 46.3773 12.5966C43.9009 10.8981 42.2024 13.3745 42.2024 13.3745L31.9079 28.3875C31.525 28.0752 31.133 27.7613 30.7291 27.4535L42.6635 10.0466C42.6635 10.0466 44.362 7.57026 41.8841 5.87178C39.4077 4.1733 37.7092 6.64968 37.7092 6.64968L25.7748 24.0535C25.3363 23.7847 24.9023 23.5519 24.4667 23.3056L35.6218 7.03864C35.6218 7.03864 37.3202 4.56225 34.8439 2.86377C32.3675 1.16529 30.669 3.64168 30.669 3.64168L18.8742 20.8427L17.0811 23.4588C24.5118 28.5557 25.2191 38.1444 20.9737 44.3361C20.1252 45.5751 18.8862 44.7266 18.8862 44.7266C23.9817 37.2944 22.4259 28.9432 14.9937 23.8477L17.1848 12.882C17.1848 12.882 18.0032 9.99258 15.1153 9.17263C12.226 8.35417 11.406 11.2435 11.406 11.2435L8.87556 18.7583C7.87239 21.7378 6.80465 24.7067 5.3915 27.515C1.40134 35.4443 3.78463 45.2988 11.3084 50.4603C19.5155 56.0874 30.7351 53.9954 36.3636 45.7898L49.953 25.9712Z"
        fill="#F3D2A2" />
      <path
        d="M35.979 48.0561C41.986 48.0561 48.0561 41.9861 48.0561 35.979C48.0561 35.1486 48.6643 34.4773 49.4947 34.4773C50.3252 34.4773 51.0596 35.1486 51.0596 35.979C51.0596 44.9896 44.9895 51.0596 35.979 51.0596C35.1485 51.0596 34.4772 50.3253 34.4772 49.4948C34.4772 48.6643 35.1485 48.0561 35.979 48.0561Z"
        fill="#5DADEC" />
      <path
        d="M43.4877 50.9965C47.993 50.9965 50.9965 47.993 50.9965 43.4877C50.9965 42.6573 51.6678 41.986 52.4982 41.986C53.3287 41.986 54 42.6573 54 43.4877C54 49.4947 49.4947 54 43.4877 54C42.6573 54 41.986 53.3287 41.986 52.4982C41.986 51.6678 42.6573 50.9965 43.4877 50.9965ZM17.958 2.94043C18.7869 2.94043 19.4597 3.61321 19.4597 4.44218C19.4597 5.27115 18.7869 5.94393 17.958 5.94393C11.9509 5.94393 5.94394 11.3337 5.94394 17.9579C5.94394 18.7869 5.27115 19.4597 4.44219 19.4597C3.61322 19.4597 2.94044 18.7869 2.94044 17.9579C2.94044 9.67729 8.94744 2.94043 17.958 2.94043Z"
        fill="#5DADEC" />
      <path
        d="M10.4494 0C11.2784 0 11.9512 0.609711 11.9512 1.43868C11.9512 2.26765 11.2784 3.0035 10.4494 3.0035C5.94416 3.0035 3.00373 6.3449 3.00373 10.4492C3.00373 11.2782 2.26938 11.9509 1.43891 11.9509C0.60844 11.9509 0.000230789 11.2782 0.000230789 10.4492C0.000230789 4.68697 4.44241 0 10.4494 0Z"
        fill="#5DADEC" />
    </symbol>

    <symbol id="delete-outline" viewBox="0 0 24 24">
      <path
        d="M16 9V19H8V9H16ZM14.5 3H9.5L8.5 4H5V6H19V4H15.5L14.5 3ZM18 7H6V19C6 20.1 6.9 21 8 21H16C17.1 21 18 20.1 18 19V7Z"
      />
    </symbol>

    <symbol id="open-outline" viewBox="0 0 24 24">
      <g clip-path="url(#clip0_30_1024)">
        <path d="M6 6V8H14.59L5 17.59L6.41 19L16 9.41V18H18V6H6Z" fill="black" />
      </g>
    </symbol>

    <symbol id="edit-outline">
      <path
        d="M14.06 9.02L14.98 9.94L5.92 19H5V18.08L14.06 9.02ZM17.66 3C17.41 3 17.15 3.1 16.96 3.29L15.13 5.12L18.88 8.87L20.71 7.04C21.1 6.65 21.1 6.02 20.71 5.63L18.37 3.29C18.17 3.09 17.92 3 17.66 3ZM14.06 6.19L3 17.25V21H6.75L17.81 9.94L14.06 6.19Z" />
    </symbol>

    <symbol id="task-outline" viewBox="0 0 24 24">
      <path
        d="M22 6.99969H13V8.99969H22V6.99969ZM22 14.9997H13V16.9997H22V14.9997ZM5.54 10.9997L2 7.45969L3.41 6.04969L5.53 8.16969L9.77 3.92969L11.18 5.33969L5.54 10.9997ZM5.54 18.9997L2 15.4597L3.41 14.0497L5.53 16.1697L9.77 11.9297L11.18 13.3397L5.54 18.9997Z" />
    </symbol>

    <symbol id="employee-outline" viewBox="0 0 24 24">
      <path
        d="M20 9V6H18V9H15V11H18V14H20V11H23V9H20ZM9 12C11.21 12 13 10.21 13 8C13 5.79 11.21 4 9 4C6.79 4 5 5.79 5 8C5 10.21 6.79 12 9 12ZM9 6C10.1 6 11 6.9 11 8C11 9.1 10.1 10 9 10C7.9 10 7 9.1 7 8C7 6.9 7.9 6 9 6ZM15.39 14.56C13.71 13.7 11.53 13 9 13C6.47 13 4.29 13.7 2.61 14.56C1.61 15.07 1 16.1 1 17.22V20H17V17.22C17 16.1 16.39 15.07 15.39 14.56ZM15 18H3V17.22C3 16.84 3.2 16.5 3.52 16.34C4.71 15.73 6.63 15 9 15C11.37 15 13.29 15.73 14.48 16.34C14.8 16.5 15 16.84 15 17.22V18Z" />
    </symbol>

    <symbol id="calender-outline" viewBox="0 0 25 24">
      <path
        d="M19.6667 4H18.6667V2H16.6667V4H8.66675V2H6.66675V4H5.66675C4.55675 4 3.67675 4.9 3.67675 6L3.66675 20C3.66675 21.1 4.55675 22 5.66675 22H19.6667C20.7667 22 21.6667 21.1 21.6667 20V6C21.6667 4.9 20.7667 4 19.6667 4ZM19.6667 20H5.66675V10H19.6667V20ZM19.6667 8H5.66675V6H19.6667V8ZM12.6667 13H17.6667V18H12.6667V13Z" />
    </symbol>

    <symbol id="priority-outline" viewBox="0 0 25 24">
      <path
        d="M12.6933 6L12.7733 6.39L13.0933 8H18.3333V14H14.9733L14.8933 13.61L14.5733 12H7.33325V6H12.6933ZM14.3333 4H5.33325V21H7.33325V14H12.9333L13.3333 16H20.3333V6H14.7333L14.3333 4Z" />
    </symbol>

    <symbol id="status-outline" viewBox="0 0 24 24">
      <path
        d="M12 2C6.48 2 2 6.48 2 12C2 17.52 6.48 22 12 22C17.52 22 22 17.52 22 12C22 6.48 17.52 2 12 2ZM12 20C7.58 20 4 16.42 4 12C4 7.58 7.58 4 12 4C16.42 4 20 7.58 20 12C20 16.42 16.42 20 12 20Z" />
      <path
        d="M7 13.5C7.82843 13.5 8.5 12.8284 8.5 12C8.5 11.1716 7.82843 10.5 7 10.5C6.17157 10.5 5.5 11.1716 5.5 12C5.5 12.8284 6.17157 13.5 7 13.5Z" />
      <path
        d="M12 13.5C12.8284 13.5 13.5 12.8284 13.5 12C13.5 11.1716 12.8284 10.5 12 10.5C11.1716 10.5 10.5 11.1716 10.5 12C10.5 12.8284 11.1716 13.5 12 13.5Z" />
      <path
        d="M17 13.5C17.8284 13.5 18.5 12.8284 18.5 12C18.5 11.1716 17.8284 10.5 17 10.5C16.1716 10.5 15.5 11.1716 15.5 12C15.5 12.8284 16.1716 13.5 17 13.5Z" />
    </symbol>

    <symbol id="refresh-outline" viewBox="0 0 24 25">
      <path
        d="M12 6.75V9.75L16 5.75L12 1.75V4.75C7.58 4.75 4 8.33 4 12.75C4 14.32 4.46 15.78 5.24 17.01L6.7 15.55C6.25 14.72 6 13.76 6 12.75C6 9.44 8.69 6.75 12 6.75ZM18.76 8.49L17.3 9.95C17.74 10.79 18 11.74 18 12.75C18 16.06 15.31 18.75 12 18.75V15.75L8 19.75L12 23.75V20.75C16.42 20.75 20 17.17 20 12.75C20 11.18 19.54 9.72 18.76 8.49Z" />
    </symbol>

    <symbol id="arrow-outline" viewBox="0 0 56 56">
      <path
        d="M49 25.6667H15.9367L24.29 17.29L21 14L7 28L21 42L24.29 38.71L15.9367 30.3333H49V25.6667Z" />
    </symbol>

    <symbol id="chart-icon" viewBox="0 0 24 24">
      <path
        d="M14.82 11H21.95C21.48 6.28005 17.72 2.52005 13 2.05005V9.18005C13.85 9.49005 14.51 10.15 14.82 11ZM15 4.58005C17 5.40005 18.6 7.00005 19.42 9.00005H15.99C15.71 8.63005 15.37 8.29005 15 8.01005V4.58005ZM2 12C2 17.19 5.95 21.4501 11 21.9501V14.82C9.84 14.4 9 13.3 9 12C9 10.7 9.84 9.60005 11 9.18005V2.05005C5.95 2.55005 2 6.81005 2 12ZM9 4.58005V8.02005C7.77 8.94005 7 10.41 7 12C7 13.59 7.77 15.06 9 15.99V19.43C6.04 18.24 4 15.35 4 12C4 8.65005 6.04 5.76005 9 4.58005ZM13 14.82V21.9501C17.72 21.4801 21.48 17.72 21.95 13H14.82C14.51 13.85 13.85 14.51 13 14.82ZM15 15.99C15.37 15.71 15.71 15.38 15.99 15H19.42C18.6 17 17 18.6 15 19.42V15.99Z" />
    </symbol>

    <symbol id="daily-report-outline" viewBox="0 0 89 88">
      <path
        d="M29.6673 66.0006C28.6284 66.0006 27.757 65.6486 27.053 64.9446C26.3514 64.2431 26.0007 63.3729 26.0007 62.334C26.0007 61.2951 26.3514 60.4249 27.053 59.7233C27.757 59.0193 28.6284 58.6673 29.6673 58.6673C30.7062 58.6673 31.5777 59.0193 32.2817 59.7233C32.9832 60.4249 33.334 61.2951 33.334 62.334C33.334 63.3729 32.9832 64.2431 32.2817 64.9446C31.5777 65.6486 30.7062 66.0006 29.6673 66.0006ZM29.6673 51.334C28.6284 51.334 27.757 50.982 27.053 50.278C26.3514 49.5764 26.0007 48.7062 26.0007 47.6673C26.0007 46.6284 26.3514 45.757 27.053 45.053C27.757 44.3514 28.6284 44.0006 29.6673 44.0006C30.7062 44.0006 31.5777 44.3514 32.2817 45.053C32.9832 45.757 33.334 46.6284 33.334 47.6673C33.334 48.7062 32.9832 49.5764 32.2817 50.278C31.5777 50.982 30.7062 51.334 29.6673 51.334ZM44.334 66.0006C43.2951 66.0006 42.4249 65.6486 41.7233 64.9446C41.0193 64.2431 40.6673 63.3729 40.6673 62.334C40.6673 61.2951 41.0193 60.4249 41.7233 59.7233C42.4249 59.0193 43.2951 58.6673 44.334 58.6673C45.3729 58.6673 46.2443 59.0193 46.9483 59.7233C47.6499 60.4249 48.0007 61.2951 48.0007 62.334C48.0007 63.3729 47.6499 64.2431 46.9483 64.9446C46.2443 65.6486 45.3729 66.0006 44.334 66.0006ZM44.334 51.334C43.2951 51.334 42.4249 50.982 41.7233 50.278C41.0193 49.5764 40.6673 48.7062 40.6673 47.6673C40.6673 46.6284 41.0193 45.757 41.7233 45.053C42.4249 44.3514 43.2951 44.0006 44.334 44.0006C45.3729 44.0006 46.2443 44.3514 46.9483 45.053C47.6499 45.757 48.0007 46.6284 48.0007 47.6673C48.0007 48.7062 47.6499 49.5764 46.9483 50.278C46.2443 50.982 45.3729 51.334 44.334 51.334ZM59.0007 66.0006C57.9618 66.0006 57.0915 65.6486 56.39 64.9446C55.686 64.2431 55.334 63.3729 55.334 62.334C55.334 61.2951 55.686 60.4249 56.39 59.7233C57.0915 59.0193 57.9618 58.6673 59.0007 58.6673C60.0395 58.6673 60.9098 59.0193 61.6113 59.7233C62.3153 60.4249 62.6673 61.2951 62.6673 62.334C62.6673 63.3729 62.3153 64.2431 61.6113 64.9446C60.9098 65.6486 60.0395 66.0006 59.0007 66.0006ZM59.0007 51.334C57.9618 51.334 57.0915 50.982 56.39 50.278C55.686 49.5764 55.334 48.7062 55.334 47.6673C55.334 46.6284 55.686 45.757 56.39 45.053C57.0915 44.3514 57.9618 44.0006 59.0007 44.0006C60.0395 44.0006 60.9098 44.3514 61.6113 45.053C62.3153 45.757 62.6673 46.6284 62.6673 47.6673C62.6673 48.7062 62.3153 49.5764 61.6113 50.278C60.9098 50.982 60.0395 51.334 59.0007 51.334ZM18.6673 80.6673C16.6507 80.6673 14.9237 79.9499 13.4863 78.515C12.0514 77.0777 11.334 75.3506 11.334 73.334V22.0007C11.334 19.984 12.0514 18.2582 13.4863 16.8233C14.9237 15.386 16.6507 14.6673 18.6673 14.6673H22.334V7.33398H29.6673V14.6673H59.0007V7.33398H66.334V14.6673H70.0007C72.0173 14.6673 73.7443 15.386 75.1817 16.8233C76.6165 18.2582 77.334 19.984 77.334 22.0007V73.334C77.334 75.3506 76.6165 77.0777 75.1817 78.515C73.7443 79.9499 72.0173 80.6673 70.0007 80.6673H18.6673ZM18.6673 73.334H70.0007V36.6673H18.6673V73.334ZM18.6673 29.334H70.0007V22.0007H18.6673V29.334Z"
        fill="black" />
    </symbol>

    <symbol id="member-wise-outline" viewBox="0 0 89 88">
      <path
        d="M55.6686 47.666C57.6853 47.666 59.4123 46.9473 60.8496 45.51C62.2845 44.0751 63.0019 42.3493 63.0019 40.3327C63.0019 38.316 62.2845 36.589 60.8496 35.1517C59.4123 33.7168 57.6853 32.9993 55.6686 32.9993C53.652 32.9993 51.9262 33.7168 50.4913 35.1517C49.054 36.589 48.3353 38.316 48.3353 40.3327C48.3353 42.3493 49.054 44.0751 50.4913 45.51C51.9262 46.9473 53.652 47.666 55.6686 47.666ZM41.002 62.3327H70.3353V60.316C70.3353 57.566 68.9908 55.3807 66.3019 53.76C63.6131 52.1418 60.0686 51.3327 55.6686 51.3327C51.2686 51.3327 47.7242 52.1418 45.0353 53.76C42.3464 55.3807 41.002 57.566 41.002 60.316V62.3327ZM15.3353 73.3327C13.3186 73.3327 11.5928 72.6152 10.158 71.1804C8.72062 69.743 8.00195 68.016 8.00195 65.9994V21.9993C8.00195 19.9827 8.72062 18.2569 10.158 16.822C11.5928 15.3847 13.3186 14.666 15.3353 14.666H37.3353L44.6686 21.9993H74.002C76.0186 21.9993 77.7456 22.718 79.183 24.1553C80.6178 25.5902 81.3353 27.316 81.3353 29.3327V65.9994C81.3353 68.016 80.6178 69.743 79.183 71.1804C77.7456 72.6152 76.0186 73.3327 74.002 73.3327H15.3353ZM15.3353 21.9993V65.9994H74.002V29.3327H41.6436L34.3103 21.9993H15.3353Z"
      />
    </symbol>

    <symbol id="excel-outline" viewBox="0 0 24 24">
      <path
        d="M14 3L2 5V19L14 21V19H21C21.552 19 22 18.552 22 18V6C22 5.448 21.552 5 21 5H14V3ZM12 5.36133V18.6387L4 17.3066V6.69336L12 5.36133ZM14 7H16V9H14V7ZM18 7H20V9H18V7ZM5.17578 8.29688L7.06055 11.9941L5 15.7031H6.73633L7.85938 13.3086C7.93437 13.0796 7.98477 12.9089 8.00977 12.7949H8.02539C8.06639 13.0329 8.1162 13.2021 8.1582 13.2871L9.27148 15.7012H11L9.00586 11.9668L10.9434 8.29688H9.32227L8.29297 10.4941C8.19297 10.7791 8.1258 10.9986 8.0918 11.1406H8.06641C8.00841 10.9026 7.95095 10.6927 7.87695 10.5117L6.95312 8.29688H5.17578ZM14 11H16V13H14V11ZM18 11H20V13H18V11ZM14 15H16V17H14V15ZM18 15H20V17H18V15Z" />
    </symbol>

    <symbol id="download-outline" viewBox="0 0 24 24">
      <path
        d="M13 5V11H14.17L12 13.17L9.83 11H11V5H13ZM15 3H9V9H5L12 16L19 9H15V3ZM19 18H5V20H19V18Z" />
    </symbol>

    <symbol id="stage-outline" viewBox="0 0 24 25">
      <path
        d="M19 21.5C18.35 21.5 17.7667 21.3127 17.25 20.938C16.7333 20.5627 16.375 20.0833 16.175 19.5H11C9.9 19.5 8.95833 19.1083 8.175 18.325C7.39167 17.5417 7 16.6 7 15.5C7 14.4 7.39167 13.4583 8.175 12.675C8.95833 11.8917 9.9 11.5 11 11.5H13C13.55 11.5 14.021 11.304 14.413 10.912C14.8043 10.5207 15 10.05 15 9.5C15 8.95 14.8043 8.479 14.413 8.087C14.021 7.69567 13.55 7.5 13 7.5H7.825C7.60833 8.08333 7.246 8.56267 6.738 8.938C6.22933 9.31267 5.65 9.5 5 9.5C4.16667 9.5 3.45833 9.20833 2.875 8.625C2.29167 8.04167 2 7.33333 2 6.5C2 5.66667 2.29167 4.95833 2.875 4.375C3.45833 3.79167 4.16667 3.5 5 3.5C5.65 3.5 6.22933 3.68733 6.738 4.062C7.246 4.43733 7.60833 4.91667 7.825 5.5H13C14.1 5.5 15.0417 5.89167 15.825 6.675C16.6083 7.45833 17 8.4 17 9.5C17 10.6 16.6083 11.5417 15.825 12.325C15.0417 13.1083 14.1 13.5 13 13.5H11C10.45 13.5 9.97933 13.6957 9.588 14.087C9.196 14.479 9 14.95 9 15.5C9 16.05 9.196 16.521 9.588 16.913C9.97933 17.3043 10.45 17.5 11 17.5H16.175C16.3917 16.9167 16.7543 16.4373 17.263 16.062C17.771 15.6873 18.35 15.5 19 15.5C19.8333 15.5 20.5417 15.7917 21.125 16.375C21.7083 16.9583 22 17.6667 22 18.5C22 19.3333 21.7083 20.0417 21.125 20.625C20.5417 21.2083 19.8333 21.5 19 21.5ZM5 7.5C5.28333 7.5 5.521 7.40433 5.713 7.213C5.90433 7.021 6 6.78333 6 6.5C6 6.21667 5.90433 5.979 5.713 5.787C5.521 5.59567 5.28333 5.5 5 5.5C4.71667 5.5 4.479 5.59567 4.287 5.787C4.09567 5.979 4 6.21667 4 6.5C4 6.78333 4.09567 7.021 4.287 7.213C4.479 7.40433 4.71667 7.5 5 7.5Z" />
    </symbol>

    <symbol id="section-outline" viewBox="0 0 16 20">
      <path
        d="M4 14H12V16H4V14ZM4 10H12V12H4V10ZM10 0H2C0.9 0 0 0.9 0 2V18C0 19.1 0.89 20 1.99 20H14C15.1 20 16 19.1 16 18V6L10 0ZM14 18H2V2H9V7H14V18Z" />
    </symbol>

    <symbol id="progress-outline" viewBox="0 0 24 24">
      <path
        d="M19.03 3.56078C17.36 2.17078 15.29 1.26078 13 1.05078V3.06078C14.73 3.25078 16.31 3.94078 17.61 4.98078L19.03 3.56078Z"
      />
      <path
        d="M11.0007 3.06078V1.05078C8.7107 1.25078 6.6407 2.17078 4.9707 3.56078L6.3907 4.98078C7.6907 3.94078 9.2707 3.25078 11.0007 3.06078Z"
      />
      <path
        d="M4.98078 6.3907L3.56078 4.9707C2.17078 6.6407 1.26078 8.7107 1.05078 11.0007H3.06078C3.25078 9.2707 3.94078 7.6907 4.98078 6.3907Z"
      />
      <path
        d="M20.9395 11.0007H22.9495C22.7395 8.7107 21.8295 6.6407 20.4395 4.9707L19.0195 6.3907C20.0595 7.6907 20.7495 9.2707 20.9395 11.0007Z"
      />
      <path d="M7 12L10.44 13.56L12 17L13.56 13.56L17 12L13.56 10.44L12 7L10.44 10.44L7 12Z"
      />
      <path
        d="M12 21.0002C8.89 21.0002 6.15 19.4102 4.54 17.0002H7V15.0002H1V21.0002H3V18.3002C4.99 21.1402 8.27 23.0002 12 23.0002C16.87 23.0002 21 19.8302 22.44 15.4402L20.48 14.9902C19.25 18.4802 15.92 21.0002 12 21.0002Z"
      />
    </symbol>

    <symbol id="duration-outline" viewBox="0 0 24 24">
      <path
        d="M12.4996 8.00055H10.9996V14.0005L15.7496 16.8505L16.4996 15.6205L12.4996 13.2505V8.00055ZM17.3366 1.81055L21.9436 5.65555L20.6636 7.19055L16.0536 3.34755L17.3366 1.81055ZM6.66264 1.81055L7.94464 3.34655L3.33664 7.19055L2.05664 5.65455L6.66264 1.81055ZM11.9996 4.00055C7.02964 4.00055 2.99964 8.03055 2.99964 13.0005C2.99964 17.9705 7.02964 22.0005 11.9996 22.0005C16.9696 22.0005 20.9996 17.9705 20.9996 13.0005C20.9996 8.03055 16.9696 4.00055 11.9996 4.00055ZM11.9996 20.0005C8.13964 20.0005 4.99964 16.8605 4.99964 13.0005C4.99964 9.14055 8.13964 6.00055 11.9996 6.00055C15.8596 6.00055 18.9996 9.14055 18.9996 13.0005C18.9996 16.8605 15.8596 20.0005 11.9996 20.0005Z" />
    </symbol>


    <symbol id="checkmark-outline" viewBox="0 0 20 20" fill="none">
      <path
        d="M10 0C4.48 0 0 4.48 0 10C0 15.52 4.48 20 10 20C15.52 20 20 15.52 20 10C20 4.48 15.52 0 10 0ZM10 18C5.59 18 2 14.41 2 10C2 5.59 5.59 2 10 2C14.41 2 18 5.59 18 10C18 14.41 14.41 18 10 18ZM14.59 5.58L8 12.17L5.41 9.59L4 11L8 15L16 7L14.59 5.58Z"
        fill="#4FAE38" />
    </symbol>

    <symbol id="task-note-outline" viewBox="0 0 24 25">
      <path
        d="M19 5.5V19.5H5V5.5H19ZM19 3.5H5C3.9 3.5 3 4.4 3 5.5V19.5C3 20.6 3.9 21.5 5 21.5H19C20.1 21.5 21 20.6 21 19.5V5.5C21 4.4 20.1 3.5 19 3.5Z" />
      <path d="M14 17.5H7V15.5H14V17.5ZM17 13.5H7V11.5H17V13.5ZM17 9.5H7V7.5H17V9.5Z" />
    </symbol>

    <symbol id="date-picker-outline" viewBox="0 0 18 21">
      <path
        d="M2 20.5C1.45 20.5 0.979 20.3043 0.587 19.913C0.195667 19.521 0 19.05 0 18.5V4.5C0 3.95 0.195667 3.47933 0.587 3.088C0.979 2.696 1.45 2.5 2 2.5H3V0.5H5V2.5H13V0.5H15V2.5H16C16.55 2.5 17.021 2.696 17.413 3.088C17.8043 3.47933 18 3.95 18 4.5V18.5C18 19.05 17.8043 19.521 17.413 19.913C17.021 20.3043 16.55 20.5 16 20.5H2ZM2 18.5H16V8.5H2V18.5ZM2 6.5H16V4.5H2V6.5Z" />
    </symbol>

    <symbol id="log-outline" viewBox="0 0 22 22">
      <path
        d="M6.03 3.95L2.49 7.49C-0.83 10.81 -0.83 16.19 2.49 19.51C5.81 22.83 11.19 22.83 14.51 19.51L20.52 13.5C21.49 12.53 21.49 10.94 20.52 9.96C20.4 9.84 20.27 9.73 20.13 9.64L20.52 9.25C21.49 8.28 21.49 6.69 20.52 5.71C20.36 5.55 20.17 5.41 19.98 5.3C20.38 4.38 20.21 3.28 19.46 2.53C18.59 1.66 17.24 1.57 16.26 2.25C16.16 2.1 16.05 1.96 15.92 1.83C14.95 0.86 13.36 0.86 12.38 1.83L9.87 4.34C9.78 4.2 9.67 4.07 9.55 3.95C8.58 2.98 7 2.98 6.03 3.95ZM7.44 5.37C7.64 5.17 7.95 5.17 8.15 5.37C8.35 5.57 8.35 5.88 8.15 6.08L4.97 9.26C6.14 10.43 6.14 12.33 4.97 13.5L6.38 14.91C7.83 13.46 8.2 11.34 7.5 9.55L13.8 3.25C14 3.05 14.31 3.05 14.51 3.25C14.71 3.45 14.71 3.76 14.51 3.96L9.91 8.56L11.32 9.97L17.33 3.96C17.53 3.76 17.84 3.76 18.04 3.96C18.24 4.16 18.24 4.47 18.04 4.67L12.03 10.68L13.44 12.09L18.39 7.14C18.59 6.94 18.9 6.94 19.1 7.14C19.3 7.34 19.3 7.65 19.1 7.85L13.44 13.51L14.85 14.92L18.39 11.38C18.59 11.18 18.9 11.18 19.1 11.38C19.3 11.58 19.3 11.89 19.1 12.09L13.1 18.1C10.56 20.64 6.45 20.64 3.91 18.1C1.37 15.56 1.37 11.45 3.91 8.91L7.44 5.37ZM22 16C22 19.31 19.31 22 16 22V20.5C18.48 20.5 20.5 18.48 20.5 16H22ZM0 6C0 2.69 2.69 0 6 0V1.5C3.52 1.5 1.5 3.52 1.5 6H0Z" />
    </symbol>

    <symbol id="due-outline" viewBox="0 0 24 24">
      <g>
        <path
          d="M11 15H13V17H11V15ZM11 7H13V13H11V7ZM19 3H14.82C14.4 1.84 13.3 1 12 1C10.7 1 9.6 1.84 9.18 3H5C4.86 3 4.73 3.01 4.6 3.04C4.21 3.12 3.86 3.32 3.59 3.59C3.41 3.77 3.26 3.99 3.16 4.23C3.06 4.46 3 4.72 3 5V19C3 19.27 3.06 19.54 3.16 19.78C3.26 20.02 3.41 20.23 3.59 20.42C3.86 20.69 4.21 20.89 4.6 20.97C4.73 20.99 4.86 21 5 21H19C20.1 21 21 20.1 21 19V5C21 3.9 20.1 3 19 3ZM12 2.75C12.41 2.75 12.75 3.09 12.75 3.5C12.75 3.91 12.41 4.25 12 4.25C11.59 4.25 11.25 3.91 11.25 3.5C11.25 3.09 11.59 2.75 12 2.75ZM19 19H5V5H19V19Z" />
      </g>
    </symbol>

    <symbol id="critical-note-outline" viewBox="0 0 24 24">
      <g>
        <path
          d="M20 16H4V4H14.1C14.02 3.61 13.92 2.89 14.1 2H4C2.9 2 2 2.9 2 4V22L6 18H20C21.1 18 22 17.1 22 16V6.98C21.42 7.42 20.74 7.75 20 7.9V16Z" />
        <path
          d="M19 6C20.6569 6 22 4.65685 22 3C22 1.34315 20.6569 0 19 0C17.3431 0 16 1.34315 16 3C16 4.65685 17.3431 6 19 6Z" />
        <path d="M14 12H6V14H14V12Z" />
        <path d="M18 9H6V11H18V9Z" />
        <path d="M6 8H18V7.9C16.79 7.65 15.75 6.95 15.03 6H6V8Z" />
      </g>
    </symbol>
    <symbol id="bell-icon" viewBox="0 0 32 32">
      <g>
        <path
          d="M16.0007 29.333C17.4673 29.333 18.6673 28.133 18.6673 26.6663H13.334C13.334 28.133 14.534 29.333 16.0007 29.333ZM24.0007 21.333V14.6663C24.0007 10.573 21.8273 7.14634 18.0007 6.23967V5.33301C18.0007 4.22634 17.1073 3.33301 16.0007 3.33301C14.894 3.33301 14.0007 4.22634 14.0007 5.33301V6.23967C10.1873 7.14634 8.00065 10.5597 8.00065 14.6663V21.333L5.33398 23.9997V25.333H26.6673V23.9997L24.0007 21.333ZM21.334 22.6663H10.6673V14.6663C10.6673 11.3597 12.6807 8.66634 16.0007 8.66634C19.3207 8.66634 21.334 11.3597 21.334 14.6663V22.6663Z" />
      </g>
    </symbol>

    <symbol id="info-outline" viewBox="0 0 24 25">
      <path
        d="M11 7.5H13V9.5H11V7.5ZM11 11.5H13V17.5H11V11.5ZM12 2.5C6.48 2.5 2 6.98 2 12.5C2 18.02 6.48 22.5 12 22.5C17.52 22.5 22 18.02 22 12.5C22 6.98 17.52 2.5 12 2.5ZM12 20.5C7.59 20.5 4 16.91 4 12.5C4 8.09 7.59 4.5 12 4.5C16.41 4.5 20 8.09 20 12.5C20 16.91 16.41 20.5 12 20.5Z" />
    </symbol>

    <symbol id="tag-outline" viewBox="0 0 20 21">
      <path
        d="M10.85 20.75C10.5667 20.75 10.3 20.6957 10.05 20.587C9.8 20.479 9.58333 20.3333 9.4 20.15L0.6 11.35C0.416667 11.1667 0.271 10.95 0.163 10.7C0.0543334 10.45 0 10.1833 0 9.9V2.75C0 2.2 0.196 1.729 0.588 1.337C0.979333 0.945667 1.45 0.75 2 0.75H9.15C9.43333 0.75 9.7 0.804 9.95 0.912C10.2 1.02067 10.4167 1.16667 10.6 1.35L19.4 10.175C19.7833 10.5583 19.975 11.029 19.975 11.587C19.975 12.1457 19.7833 12.6167 19.4 13L12.25 20.15C12.0667 20.3333 11.8543 20.479 11.613 20.587C11.371 20.6957 11.1167 20.75 10.85 20.75ZM10.825 18.75L17.975 11.6L9.15 2.75H2V9.9L10.825 18.75ZM4.5 6.75C4.91667 6.75 5.27067 6.604 5.562 6.312C5.854 6.02067 6 5.66667 6 5.25C6 4.83333 5.854 4.47933 5.562 4.188C5.27067 3.896 4.91667 3.75 4.5 3.75C4.08333 3.75 3.72933 3.896 3.438 4.188C3.146 4.47933 3 4.83333 3 5.25C3 5.66667 3.146 6.02067 3.438 6.312C3.72933 6.604 4.08333 6.75 4.5 6.75Z" />
    </symbol>

    <symbol id="logout-outline" viewBox="0 0 24 24">
      <path
        d="M17 8L15.59 9.41L17.17 11H9V13H17.17L15.59 14.58L17 16L21 12L17 8ZM5 5H12V3H5C3.9 3 3 3.9 3 5V19C3 20.1 3.9 21 5 21H12V19H5V5Z" />
    </symbol>

    <symbol id="report-note-outline" viewBox="0 0 24 24">
      <g clip-path="url(#clip0_98_4492)">
        <path
          d="M20 2H4C2.9 2 2.01 2.9 2.01 4L2 22L6 18H20C21.1 18 22 17.1 22 16V4C22 2.9 21.1 2 20 2ZM20 16H5.17L4.58 16.59L4 17.17V4H20V16ZM6 12H8V14H6V12ZM6 9H8V11H6V9ZM6 6H8V8H6V6ZM10 12H15V14H10V12ZM10 9H18V11H10V9ZM10 6H18V8H10V6Z" />
      </g>
    </symbol>

    <symbol id="chat-outline" viewBox="0 0 20 20">
      <path
        d="M13 2V9H3.17L2.58 9.59L2 10.17V2H13ZM14 0H1C0.45 0 0 0.45 0 1V15L4 11H14C14.55 11 15 10.55 15 10V1C15 0.45 14.55 0 14 0ZM19 4H17V13H4V15C4 15.55 4.45 16 5 16H16L20 20V5C20 4.45 19.55 4 19 4Z" />
    </symbol>

    <symbol id="attachment-outline" viewBox="0 0 16 20">
      <path
        d="M10 0H2C0.9 0 0 0.9 0 2V18C0 19.1 0.9 20 2 20H14C15.1 20 16 19.1 16 18V6L10 0ZM14 18H2V2H10V6H14V18ZM8 15C6.9 15 6 14.1 6 13V7.5C6 7.22 6.22 7 6.5 7C6.78 7 7 7.22 7 7.5V13H9V7.5C9 6.12 7.88 5 6.5 5C5.12 5 4 6.12 4 7.5V13C4 15.21 5.79 17 8 17C10.21 17 12 15.21 12 13V9H10V13C10 14.1 9.1 15 8 15Z" />
    </symbol>

    <symbol id="send-outline" viewBox="0 0 24 24">
      <path d="M3 20V4L22 12L3 20ZM5 17L16.85 12L5 7V10.5L11 12L5 13.5V17ZM5 17V7V13.5V17Z" />
    </symbol>
    <symbol id="chevron-back-outline" class="ionicon" viewBox="0 0 512 512">
      <path  stroke="currentColor" stroke-linecap="round" stroke-linejoin="round"
        stroke-width="48" d="M328 112L184 256l144 144" />
    </symbol>

    <symbol id="chevron-forward-outline" class="ionicon" viewBox="0 0 512 512">
      <path stroke="currentColor" stroke-linecap="round" stroke-linejoin="round"
        stroke-width="48" d="M184 112l144 144-144 144" />
    </symbol>

  </defs>
</svg>